<?xml version="1.0" encoding="UTF-8" standalone="no"?>
<!-- Created with Inkscape (http://www.inkscape.org/) -->

<svg
   xmlns:dc="http://purl.org/dc/elements/1.1/"
   xmlns:cc="http://creativecommons.org/ns#"
   xmlns:rdf="http://www.w3.org/1999/02/22-rdf-syntax-ns#"
   xmlns:svg="http://www.w3.org/2000/svg"
   xmlns="http://www.w3.org/2000/svg"
   xmlns:sodipodi="http://sodipodi.sourceforge.net/DTD/sodipodi-0.dtd"
   xmlns:inkscape="http://www.inkscape.org/namespaces/inkscape"
   width="20"
   height="20"
   id="svg7214"
   version="1.1"
   inkscape:version="0.48.2 r9819"
   sodipodi:docname="New document 14">
  <defs
     id="defs7216" />
  <sodipodi:namedview
     id="base"
     pagecolor="#ffffff"
     bordercolor="#666666"
     borderopacity="1.0"
     inkscape:pageopacity="0.0"
     inkscape:pageshadow="2"
     inkscape:zoom="5.6"
     inkscape:cx="-102.57281"
     inkscape:cy="10.14956"
     inkscape:document-units="px"
     inkscape:current-layer="layer1"
     showgrid="false"
     showborder="true"
     inkscape:window-width="1440"
     inkscape:window-height="878"
     inkscape:window-x="708"
     inkscape:window-y="3"
     inkscape:window-maximized="0" />
  <metadata
     id="metadata7219">
    <rdf:RDF>
      <cc:Work
         rdf:about="">
        <dc:format>image/svg+xml</dc:format>
        <dc:type
           rdf:resource="http://purl.org/dc/dcmitype/StillImage" />
        <dc:title></dc:title>
      </cc:Work>
    </rdf:RDF>
  </metadata>
  <g
     inkscape:label="Layer 1"
     inkscape:groupmode="layer"
     id="layer1"
     transform="translate(0,-1032.3622)">
    <g
       id="g8230"
       transform="translate(-133.57143,-21.607143)">
      <path
         inkscape:connector-curvature="0"
         id="path7222"
         d="m 0.37825658,1052.0471 c 3.47350062,-3.0947 3.47350062,-3.0947 3.47350062,-3.0947"
         style="fill:none;stroke:#000000;stroke-width:1.25143683px;stroke-linecap:butt;stroke-linejoin:miter;stroke-opacity:1" />
      <path
         inkscape:connector-curvature="0"
         id="path7230"
         d="m 0.56821082,1044.2636 c 6.69226058,8.0986 6.69226058,8.0986 6.69226058,8.0986 l 2.5253815,-2.121 -6.8816643,-7.8416 z"
         style="fill:#fd0000;fill-opacity:1;stroke:#000000;stroke-width:1.00898576px;stroke-linecap:butt;stroke-linejoin:miter;stroke-opacity:1" />
      <path
         sodipodi:nodetypes="csssc"
         transform="translate(0,1032.3622)"
         inkscape:connector-curvature="0"
         id="path7748"
         d="M 3.0304576,9.9204673 C 4.1063493,9.7722922 4.4087656,9.8954624 5.1603023,9.6213114 6.0484718,9.2973184 6.7322253,9.2306372 7.179873,8.9424579 7.5004376,8.7360902 8.5282334,7.9895008 8.9467743,7.6226074 9.1917991,7.4078184 10.015741,6.3052786 10.015741,6.3052786"
         style="fill:none;stroke:#000000;stroke-width:1px;stroke-linecap:round;stroke-linejoin:miter;stroke-opacity:1" />
      <path
         transform="matrix(0.07804541,-1.0134314,0.7842082,0.49529233,4.5643501,1048.8118)"
         d="m 15.846768,10.151012 c 0,2.405909 -1.25785,4.356283 -2.809487,4.356283 -1.551637,0 -2.809487,-1.950374 -2.809487,-4.356283 0,-2.4059081 1.25785,-4.3562823 2.809487,-4.3562823 1.551637,0 2.809487,1.9503742 2.809487,4.3562823 z"
         sodipodi:ry="4.3562827"
         sodipodi:rx="2.8094869"
         sodipodi:cy="10.151012"
         sodipodi:cx="13.037281"
         id="path7742"
         style="opacity:0.95;fill:#fd0000;fill-opacity:1;stroke:#000000;stroke-width:0.75381184;stroke-miterlimit:4;stroke-opacity:1;stroke-dasharray:none"
         sodipodi:type="arc" />
      <path
         sodipodi:nodetypes="csssc"
         inkscape:connector-curvature="0"
         id="path7750"
         d="m 9.7317406,1050.351 c 0.2531826,-0.5064 0.5991784,-1.4445 0.9508844,-2.1579 0.203862,-0.4135 0.497103,-1.1087 0.766218,-1.4832 0.298636,-0.4156 0.659633,-0.7821 1.200842,-1.1499 1.121705,-0.7625 2.477275,-1.1393 2.477275,-1.1393"
         style="fill:none;stroke:#000000;stroke-width:1px;stroke-linecap:round;stroke-linejoin:miter;stroke-opacity:1" />
      <path
         transform="translate(0,1032.3622)"
         inkscape:connector-curvature="0"
         id="path8228"
         d="m 6.7636865,13.642921 c -1.5766998,-1.798204 -2.8551741,-3.272569 -2.841054,-3.276366 0.01412,-0.0038 0.2303514,-0.02973 0.4805142,-0.05764 0.3795829,-0.04234 0.5519466,-0.08116 1.0417198,-0.23459 C 5.7676496,9.9732061 6.2590293,9.8240768 6.5368212,9.7429279 7.1546166,9.5624568 7.3264306,9.4772671 7.9099973,9.0620729 8.900707,8.3572061 9.2804492,8.0431554 9.6080151,7.6577944 9.7558074,7.483926 9.8858008,7.3379289 9.8968891,7.3333563 c 0.011089,-0.00457 0.045244,0.073556 0.075902,0.17362 0.1928819,0.6295454 0.6639049,1.4700688 1.2075819,2.1548878 0.268601,0.3383319 0.928718,0.9998679 1.259527,1.2622349 0.376071,0.298265 0.872977,0.617307 1.251437,0.803494 l 0.336173,0.165383 -0.272945,0.120058 c -1.377817,0.606048 -2.318601,1.353828 -2.892476,2.299078 -0.168523,0.277581 -0.730648,1.450118 -1.0239146,2.135783 -0.1074562,0.251236 -0.1981619,0.458524 -0.2015684,0.46064 -0.00341,0.0021 -1.2962198,-1.467411 -2.8729197,-3.265614 l 0,0 z"
         style="opacity:0.95;fill:#fd0000;fill-opacity:1;stroke:#000000;stroke-width:0.02525381;stroke-linecap:round;stroke-linejoin:miter;stroke-miterlimit:4;stroke-opacity:1;stroke-dasharray:none" />
    </g>
  </g>
</svg>
