<?xml version="1.0" encoding="UTF-8" standalone="no"?>
<!-- Created with Inkscape (http://www.inkscape.org/) -->

<svg
   xmlns:dc="http://purl.org/dc/elements/1.1/"
   xmlns:cc="http://creativecommons.org/ns#"
   xmlns:rdf="http://www.w3.org/1999/02/22-rdf-syntax-ns#"
   xmlns:svg="http://www.w3.org/2000/svg"
   xmlns="http://www.w3.org/2000/svg"
   xmlns:sodipodi="http://sodipodi.sourceforge.net/DTD/sodipodi-0.dtd"
   xmlns:inkscape="http://www.inkscape.org/namespaces/inkscape"
   width="48"
   height="48"
   id="svg8773"
   version="1.1"
   inkscape:version="0.48.2 r9819"
   sodipodi:docname="listTabIcon.svg"
   inkscape:export-filename="/Deepak/projects/android/ShoppingListTest/ico/image9993.png"
   inkscape:export-xdpi="90"
   inkscape:export-ydpi="90">
  <defs
     id="defs8775" />
  <sodipodi:namedview
     id="base"
     pagecolor="#ffffff"
     bordercolor="#666666"
     borderopacity="1.0"
     inkscape:pageopacity="0.0"
     inkscape:pageshadow="2"
     inkscape:zoom="7.9195959"
     inkscape:cx="20.134126"
     inkscape:cy="20.93991"
     inkscape:document-units="px"
     inkscape:current-layer="layer1"
     showgrid="false"
     inkscape:window-width="1440"
     inkscape:window-height="878"
     inkscape:window-x="0"
     inkscape:window-y="0"
     inkscape:window-maximized="0"
     inkscape:showpageshadow="false" />
  <metadata
     id="metadata8778">
    <rdf:RDF>
      <cc:Work
         rdf:about="">
        <dc:format>image/svg+xml</dc:format>
        <dc:type
           rdf:resource="http://purl.org/dc/dcmitype/StillImage" />
        <dc:title></dc:title>
      </cc:Work>
    </rdf:RDF>
  </metadata>
  <g
     inkscape:label="Layer 1"
     inkscape:groupmode="layer"
     id="layer1"
     transform="translate(0,-1004.3622)">
    <path
       style="fill:#808080;fill-opacity:1;stroke:#000000;stroke-width:0.12626907;stroke-opacity:1"
       d="m 2.5827247,1052.521 c -1.290048,-0.4461 -1.70239102,-0.7561 -2.28309902,-1.7164 l -0.305416,-0.5051 0,-21.5289 c 0,-11.8409 0.04641,-21.7484 0.103128,-22.0168 0.135881,-0.6429 1.09273602,-1.6684 1.91717702,-2.0548 l 0.631345,-0.2958 21.4657413,0 21.465742,0 0.644246,0.2999 c 0.710238,0.3308 1.440132,0.9956 1.784226,1.6252 0.211535,0.3871 0.220861,1.6007 0.178757,23.2631 -0.02443,12.5701 -0.05284,22.8627 -0.06314,22.8725 -0.08814,0.084 -45.2977903,0.1404 -45.5387123,0.057 z m 8.6258083,-16.6546 c 0.304389,-0.3178 0.339296,-0.4483 0.339296,-1.2688 0,-0.8268 -0.03206,-0.9443 -0.334111,-1.2242 -0.3182,-0.2949 -0.410503,-0.3096 -1.9383283,-0.3096 -0.88232,0 -1.775328,0.06 -1.984463,0.1325 -0.489196,0.1706 -0.667592,0.578 -0.667592,1.5246 0,0.6732 0.04276,0.8042 0.369095,1.1305 l 0.369094,0.3691 1.753856,0 1.7538563,0 0.339297,-0.3541 0,0 z m 28.740058,-0.083 c 0.415874,-0.215 0.510772,-0.4922 0.513131,-1.4984 0.0015,-0.646 -0.04329,-0.7808 -0.367371,-1.1049 l -0.369093,-0.3691 -11.632739,0 c -12.694834,0 -12.230027,-0.026 -12.509504,0.7088 -0.296473,0.7798 -0.06034,2.0636 0.422461,2.2968 0.189139,0.091 3.986824,0.1368 11.932035,0.1426 9.982368,0.01 11.705741,-0.018 12.01108,-0.1758 l 0,0 z m -28.789257,-9.1076 c 0.369853,-0.3112 0.388495,-0.3721 0.388495,-1.2685 0,-0.8385 -0.03489,-0.9764 -0.318979,-1.2605 -0.316808,-0.3168 -0.331819,-0.3187 -2.2055543,-0.2783 -2.266319,0.049 -2.298364,0.066 -2.377723,1.3127 -0.0993,1.5595 0.247807,1.8092 2.525023,1.8164 1.5408843,0 1.6146533,-0.01 1.9887383,-0.3218 l 0,0 z m 28.146858,0.1482 c 0.530575,-0.2743 0.690515,-0.6914 0.62994,-1.6428 -0.08982,-1.4106 1.268478,-1.2721 -12.4784,-1.2721 -13.687218,0 -12.380359,-0.1253 -12.475935,1.196 -0.06516,0.9009 0.127145,1.4553 0.592506,1.7082 0.492629,0.2677 23.215023,0.278 23.731889,0.011 l 0,0 z m -28.08526,-9.5537 c 0.281427,-0.3345 0.326897,-0.5078 0.326897,-1.2457 0,-0.676 -0.05532,-0.9275 -0.261703,-1.1899 -0.260993,-0.3318 -0.266613,-0.3327 -2.0731123,-0.3327 -0.996275,0 -1.90339,0.035 -2.015811,0.078 -0.346488,0.1329 -0.573868,0.7536 -0.573868,1.5665 0,0.6866 0.04148,0.815 0.369095,1.1427 l 0.369094,0.3691 1.766255,0 1.7662563,0 0.326897,-0.3885 0,0 z m 28.368343,0.019 c 0.32762,-0.3277 0.369094,-0.4561 0.369094,-1.1427 0,-0.8129 -0.227379,-1.4336 -0.573867,-1.5665 -0.267131,-0.1026 -23.586409,-0.1026 -23.85354,0 -0.346489,0.1329 -0.573868,0.7536 -0.573868,1.5665 0,0.6866 0.04147,0.815 0.369094,1.1427 l 0.369094,0.369 11.76245,0 11.762449,0 0.369094,-0.369 z"
       id="path3757"
       inkscape:connector-curvature="0" />
  </g>
</svg>
