<?xml version="1.0" encoding="UTF-8" standalone="no"?>
<!-- Created with Inkscape (http://www.inkscape.org/) -->

<svg
   xmlns:dc="http://purl.org/dc/elements/1.1/"
   xmlns:cc="http://creativecommons.org/ns#"
   xmlns:rdf="http://www.w3.org/1999/02/22-rdf-syntax-ns#"
   xmlns:svg="http://www.w3.org/2000/svg"
   xmlns="http://www.w3.org/2000/svg"
   xmlns:xlink="http://www.w3.org/1999/xlink"
   xmlns:sodipodi="http://sodipodi.sourceforge.net/DTD/sodipodi-0.dtd"
   xmlns:inkscape="http://www.inkscape.org/namespaces/inkscape"
   width="512"
   height="512"
   id="svg8402"
   version="1.1"
   inkscape:version="0.48.2 r9819"
   sodipodi:docname="appIcon.svg">
  <defs
     id="defs8404">
    <filter
       id="filter7121"
       inkscape:collect="always">
      <feGaussianBlur
         id="feGaussianBlur7123"
         stdDeviation="1.3142999"
         inkscape:collect="always" />
    </filter>
    <filter
       id="filter7061"
       inkscape:collect="always">
      <feGaussianBlur
         id="feGaussianBlur7063"
         stdDeviation="0.4725"
         inkscape:collect="always" />
    </filter>
    <linearGradient
       gradientTransform="translate(0,980.73718)"
       gradientUnits="userSpaceOnUse"
       y2="67.35714"
       x2="43.214287"
       y1="3.7857141"
       x1="15.357142"
       id="linearGradient7054"
       xlink:href="#linearGradient7048"
       inkscape:collect="always" />
    <linearGradient
       id="linearGradient7048"
       inkscape:collect="always">
      <stop
         id="stop7050"
         offset="0"
         style="stop-color:#e9ddaf;stop-opacity:1" />
      <stop
         id="stop7052"
         offset="1"
         style="stop-color:#d3bc5f;stop-opacity:1" />
    </linearGradient>
  </defs>
  <sodipodi:namedview
     id="base"
     pagecolor="#ffffff"
     bordercolor="#666666"
     borderopacity="1.0"
     inkscape:pageopacity="0.0"
     inkscape:pageshadow="2"
     inkscape:zoom="0.35"
     inkscape:cx="375"
     inkscape:cy="520"
     inkscape:document-units="px"
     inkscape:current-layer="layer1"
     showgrid="false"
     inkscape:window-width="1440"
     inkscape:window-height="878"
     inkscape:window-x="73"
     inkscape:window-y="0"
     inkscape:window-maximized="0" />
  <metadata
     id="metadata8407">
    <rdf:RDF>
      <cc:Work
         rdf:about="">
        <dc:format>image/svg+xml</dc:format>
        <dc:type
           rdf:resource="http://purl.org/dc/dcmitype/StillImage" />
        <dc:title></dc:title>
      </cc:Work>
    </rdf:RDF>
  </metadata>
  <g
     inkscape:label="Layer 1"
     inkscape:groupmode="layer"
     id="layer1"
     transform="translate(0,-540.36218)">
    <g
       transform="matrix(6.7815251,0,0,6.7195572,13.922,-6036.0996)"
       id="layer1-2"
       inkscape:label="Layer 1">
      <g
         id="g8410">
        <path
           sodipodi:nodetypes="ssssscssccss"
           inkscape:connector-curvature="0"
           id="path7065"
           d="m 3.3590921,986.75504 63.6746749,0 c 0.76283,0 1.378055,0.61412 1.376949,1.37695 l -0.06313,43.55831 c -0.0011,0.7628 -22.774341,20.0004 -23.53717,20.0016 l -24.310429,-0.588 -17.1408949,0.6511 c -0.7622802,0.029 -1.3769494,-0.6141 -1.3769494,-1.3769 l 0.6713654,-7.7774 0.4536346,-13.9885 -1.125,-40.48021 c -0.021192,-0.76254 0.6141194,-1.37695 1.3769494,-1.37695 z"
           style="opacity:0.3;fill:#000000;fill-opacity:1;stroke:none;filter:url(#filter7121)" />
        <path
           style="fill:url(#linearGradient7054);fill-opacity:1;stroke:none"
           d="m 4.2340921,984.88004 63.6746749,0 c 0.76283,0 1.378055,0.61412 1.376949,1.37695 l -0.06313,43.55831 c -0.0011,0.7628 -22.774341,20.0004 -23.53717,20.0016 l -24.310429,-0.588 -17.1408949,0.6511 c -0.7622802,0.029 -1.3769494,-0.6141 -1.3769494,-1.3769 l 0.6713654,-7.7774 0.4536346,-13.9885 -1.125,-40.48021 c -0.021192,-0.76254 0.6141194,-1.37695 1.3769494,-1.37695 z"
           id="rect7038"
           inkscape:connector-curvature="0"
           sodipodi:nodetypes="ssssscssccss" />
        <path
           style="opacity:0.3;fill:#000000;stroke:none;filter:url(#filter7061)"
           d="m 43.625,47.625 c 22.25,2.625 25.271354,2.824532 25.271354,2.824532 L 46.951953,69.005047 z"
           id="path7057"
           inkscape:connector-curvature="0"
           transform="matrix(1.0446142,0,0,1.0420734,-3.145701,977.40615)"
           sodipodi:nodetypes="cccc" />
        <path
           sodipodi:nodetypes="cccc"
           inkscape:connector-curvature="0"
           id="path7059"
           d="m 43.625,1027.8622 c 22.25,2.625 25.75,1.625 25.75,1.625 l -23.5,19.875 z"
           style="fill:#d3bc5f;fill-opacity:1;stroke:none" />
        <rect
           style="fill:#000000;fill-opacity:1;stroke:none"
           id="rect7125"
           width="2.0222087"
           height="2.7190764"
           x="9.533412"
           y="997.89441"
           ry="1.2795653" />
        <rect
           ry="1.2891836"
           y="1007.4674"
           x="9.5174875"
           height="2.7395151"
           width="2.076391"
           id="rect7127"
           style="fill:#000000;fill-opacity:1;stroke:none" />
        <rect
           style="fill:#000000;fill-opacity:1;stroke:none"
           id="rect7129"
           width="1.9973552"
           height="2.5188959"
           x="9.5202932"
           y="1017.0954"
           ry="1.1853627" />
        <text
           xml:space="preserve"
           style="font-size:4px;font-style:normal;font-weight:normal;line-height:125%;letter-spacing:0px;word-spacing:0px;fill:#000000;fill-opacity:1;stroke:none;font-family:Sans"
           x="16.125"
           y="17.375"
           id="text7131"
           sodipodi:linespacing="125%"
           transform="translate(0,980.36218)"><tspan
             sodipodi:role="line"
             id="tspan7133"
             x="16.125"
             y="17.375" /></text>
        <flowRoot
           xml:space="preserve"
           id="flowRoot7135"
           style="font-size:4px;font-style:italic;font-variant:normal;font-weight:bold;font-stretch:normal;line-height:125%;letter-spacing:0px;word-spacing:0px;fill:#000000;fill-opacity:1;stroke:none;font-family:Lucida Handwriting;-inkscape-font-specification:Lucida Handwriting Bold Italic"
           transform="matrix(1.0785113,0,0,1.2795654,-0.71244535,976.14181)"><flowRegion
             id="flowRegion7137"><rect
               id="rect7139"
               width="22.125"
               height="5.875"
               x="14"
               y="15.625" /></flowRegion><flowPara
             id="flowPara7141">Bread</flowPara></flowRoot>        <flowRoot
           xml:space="preserve"
           id="flowRoot7151"
           style="font-size:4px;font-style:italic;font-variant:normal;font-weight:bold;font-stretch:normal;line-height:125%;letter-spacing:0px;word-spacing:0px;fill:#000000;fill-opacity:1;stroke:none;font-family:Lucida Handwriting;-inkscape-font-specification:Lucida Handwriting Bold Italic"><flowRegion
             id="flowRegion7153"><rect
               id="rect7155"
               width="0"
               height="8.75"
               x="33.375"
               y="15.875" /></flowRegion><flowPara
             id="flowPara7157" /></flowRoot>        <text
           xml:space="preserve"
           style="font-size:4.77937698px;font-style:italic;font-variant:normal;font-weight:bold;font-stretch:normal;line-height:125%;letter-spacing:0px;word-spacing:0px;fill:#000000;fill-opacity:1;stroke:none;font-family:Lucida Handwriting;-inkscape-font-specification:Lucida Handwriting Bold Italic"
           x="16.243164"
           y="936.28247"
           id="text7159"
           sodipodi:linespacing="125%"
           transform="scale(0.92682245,1.0789553)"><tspan
             sodipodi:role="line"
             id="tspan7161"
             x="16.243164"
             y="936.28247">Butter</tspan></text>
        <text
           xml:space="preserve"
           style="font-size:4.49482346px;font-style:italic;font-variant:normal;font-weight:bold;font-stretch:normal;line-height:125%;letter-spacing:0px;word-spacing:0px;fill:#000000;fill-opacity:1;stroke:none;font-family:Lucida Handwriting;-inkscape-font-specification:Lucida Handwriting Bold Italic"
           x="15.942121"
           y="966.29797"
           id="text7163"
           sodipodi:linespacing="125%"
           transform="scale(0.94798484,1.0548692)"><tspan
             sodipodi:role="line"
             id="tspan7165"
             x="15.942121"
             y="966.29797">Banana</tspan></text>
        <path
           style="fill:none;stroke:#000000;stroke-width:0.81573415px;stroke-linecap:butt;stroke-linejoin:miter;stroke-opacity:1"
           d="m 54.059423,1000.0498 c 2.048704,2.9181 1.925782,1.7762 1.925782,1.7762 l 1.342394,-2.16865 2.427223,-3.92131 0,0 -0.08194,0.12693"
           id="path7167"
           inkscape:connector-curvature="0"
           sodipodi:nodetypes="cccccc" />
        <path
           sodipodi:nodetypes="cccccc"
           inkscape:connector-curvature="0"
           id="path7171"
           d="m 53.875694,1018.2761 c 2.023526,2.7032 1.902114,1.6454 1.902114,1.6454 l 1.325896,-2.009 2.397392,-3.6326 0,0 -0.08094,0.1173"
           style="fill:none;stroke:#000000;stroke-width:0.78029299px;stroke-linecap:butt;stroke-linejoin:miter;stroke-opacity:1" />
        <path
           style="opacity:0.95;fill:none;stroke:#000000;stroke-width:0.47793773;stroke-linecap:butt;stroke-linejoin:miter;stroke-miterlimit:4;stroke-opacity:1;stroke-dasharray:none"
           d="m 13.947121,1008.9177 c 20.487058,-0.3223 20.487058,-0.3223 20.487058,-0.3223 l 0,0 0.276852,0"
           id="path7175"
           inkscape:connector-curvature="0" />
        <g
           transform="matrix(0.78980029,0,0,0.82266693,137.94031,145.38749)"
           id="layer1-5"
           inkscape:label="Layer 1">
          <g
             transform="translate(-133.57143,-21.607143)"
             id="g8230">
            <path
               style="fill:none;stroke:#000000;stroke-width:1.25143683px;stroke-linecap:butt;stroke-linejoin:miter;stroke-opacity:1"
               d="m 0.37825658,1052.0471 c 3.47350062,-3.0947 3.47350062,-3.0947 3.47350062,-3.0947"
               id="path7222"
               inkscape:connector-curvature="0" />
            <path
               style="fill:#fd0000;fill-opacity:1;stroke:#000000;stroke-width:1.00898576px;stroke-linecap:butt;stroke-linejoin:miter;stroke-opacity:1"
               d="m 0.56821082,1044.2636 c 6.69226058,8.0986 6.69226058,8.0986 6.69226058,8.0986 l 2.5253815,-2.121 -6.8816643,-7.8416 z"
               id="path7230"
               inkscape:connector-curvature="0" />
            <path
               style="fill:none;stroke:#000000;stroke-width:1px;stroke-linecap:round;stroke-linejoin:miter;stroke-opacity:1"
               d="M 3.0304576,9.9204673 C 4.1063493,9.7722922 4.4087656,9.8954624 5.1603023,9.6213114 6.0484718,9.2973184 6.7322253,9.2306372 7.179873,8.9424579 7.5004376,8.7360902 8.5282334,7.9895008 8.9467743,7.6226074 9.1917991,7.4078184 10.015741,6.3052786 10.015741,6.3052786"
               id="path7748"
               inkscape:connector-curvature="0"
               transform="translate(0,1032.3622)"
               sodipodi:nodetypes="csssc" />
            <path
               sodipodi:type="arc"
               style="opacity:0.95;fill:#fd0000;fill-opacity:1;stroke:#000000;stroke-width:0.75381184;stroke-miterlimit:4;stroke-opacity:1;stroke-dasharray:none"
               id="path7742"
               sodipodi:cx="13.037281"
               sodipodi:cy="10.151012"
               sodipodi:rx="2.8094869"
               sodipodi:ry="4.3562827"
               d="m 15.846768,10.151012 c 0,2.405909 -1.25785,4.356283 -2.809487,4.356283 -1.551637,0 -2.809487,-1.950374 -2.809487,-4.356283 0,-2.4059081 1.25785,-4.3562823 2.809487,-4.3562823 1.551637,0 2.809487,1.9503742 2.809487,4.3562823 z"
               transform="matrix(0.07804541,-1.0134314,0.7842082,0.49529233,4.5643501,1048.8118)" />
            <path
               style="fill:none;stroke:#000000;stroke-width:1px;stroke-linecap:round;stroke-linejoin:miter;stroke-opacity:1"
               d="m 9.7317406,1050.351 c 0.2531826,-0.5064 0.5991784,-1.4445 0.9508844,-2.1579 0.203862,-0.4135 0.497103,-1.1087 0.766218,-1.4832 0.298636,-0.4156 0.659633,-0.7821 1.200842,-1.1499 1.121705,-0.7625 2.477275,-1.1393 2.477275,-1.1393"
               id="path7750"
               inkscape:connector-curvature="0"
               sodipodi:nodetypes="csssc" />
            <path
               style="opacity:0.95;fill:#fd0000;fill-opacity:1;stroke:#000000;stroke-width:0.02525381;stroke-linecap:round;stroke-linejoin:miter;stroke-miterlimit:4;stroke-opacity:1;stroke-dasharray:none"
               d="m 6.7636865,13.642921 c -1.5766998,-1.798204 -2.8551741,-3.272569 -2.841054,-3.276366 0.01412,-0.0038 0.2303514,-0.02973 0.4805142,-0.05764 0.3795829,-0.04234 0.5519466,-0.08116 1.0417198,-0.23459 C 5.7676496,9.9732061 6.2590293,9.8240768 6.5368212,9.7429279 7.1546166,9.5624568 7.3264306,9.4772671 7.9099973,9.0620729 8.900707,8.3572061 9.2804492,8.0431554 9.6080151,7.6577944 9.7558074,7.483926 9.8858008,7.3379289 9.8968891,7.3333563 c 0.011089,-0.00457 0.045244,0.073556 0.075902,0.17362 0.1928819,0.6295454 0.6639049,1.4700688 1.2075819,2.1548878 0.268601,0.3383319 0.928718,0.9998679 1.259527,1.2622349 0.376071,0.298265 0.872977,0.617307 1.251437,0.803494 l 0.336173,0.165383 -0.272945,0.120058 c -1.377817,0.606048 -2.318601,1.353828 -2.892476,2.299078 -0.168523,0.277581 -0.730648,1.450118 -1.0239146,2.135783 -0.1074562,0.251236 -0.1981619,0.458524 -0.2015684,0.46064 -0.00341,0.0021 -1.2962198,-1.467411 -2.8729197,-3.265614 l 0,0 z"
               id="path8228"
               inkscape:connector-curvature="0"
               transform="translate(0,1032.3622)" />
          </g>
        </g>
      </g>
    </g>
  </g>
</svg>
