<?xml version="1.0" encoding="UTF-8" standalone="no"?>
<svg
   xmlns:dc="http://purl.org/dc/elements/1.1/"
   xmlns:cc="http://creativecommons.org/ns#"
   xmlns:rdf="http://www.w3.org/1999/02/22-rdf-syntax-ns#"
   xmlns:svg="http://www.w3.org/2000/svg"
   xmlns="http://www.w3.org/2000/svg"
   xmlns:sodipodi="http://sodipodi.sourceforge.net/DTD/sodipodi-0.dtd"
   xmlns:inkscape="http://www.inkscape.org/namespaces/inkscape"
   version="1.1"
   x="0px"
   y="0px"
   width="480px"
   height="480px"
   viewBox="0 0 480 480"
   xml:space="preserve"
   id="svg2"
   inkscape:version="0.48.2 r9819"
   sodipodi:docname="listTab.svg"><metadata
   id="metadata13"><rdf:RDF><cc:Work
       rdf:about=""><dc:format>image/svg+xml</dc:format><dc:type
         rdf:resource="http://purl.org/dc/dcmitype/StillImage" /></cc:Work></rdf:RDF></metadata><defs
   id="defs11">
  	
  	
  </defs><sodipodi:namedview
   pagecolor="#ffffff"
   bordercolor="#666666"
   borderopacity="1"
   objecttolerance="10"
   gridtolerance="10"
   guidetolerance="10"
   inkscape:pageopacity="0"
   inkscape:pageshadow="2"
   inkscape:window-width="1440"
   inkscape:window-height="878"
   id="namedview9"
   showgrid="false"
   inkscape:zoom="0.49166667"
   inkscape:cx="297.46094"
   inkscape:cy="259.11864"
   inkscape:window-x="0"
   inkscape:window-y="0"
   inkscape:window-maximized="0"
   inkscape:current-layer="svg2" />
  <path
   d="M 64.9375 34.625 C 49.714941 35.336981 37.5 46.999565 37.5 61.09375 L 37.5 422.78125 C 37.5 437.33642 50.532826 449.25 66.4375 449.25 L 249.1875 449.25 L 248.5 448.5625 L 432.03125 448.5625 L 432.03125 251.71875 C 432.26928 251.54038 432.49164 251.38457 432.71875 251.1875 L 432.71875 61.09375 C 432.71975 46.544914 419.71718 34.625 403.8125 34.625 L 66.4375 34.625 C 65.940532 34.625 65.428544 34.60204 64.9375 34.625 z M 102.875 122 L 122.4375 122 C 127.7386 122 132.09375 125.99372 132.09375 130.84375 L 132.09375 139.65625 C 132.09375 144.50628 127.7386 148.46875 122.4375 148.46875 L 102.875 148.46875 C 97.576669 148.46875 93.21875 144.50628 93.21875 139.65625 L 93.21875 130.84375 C 93.21875 125.99372 97.576669 122 102.875 122 z M 170.96875 122 L 354.09375 122 C 359.39485 122 363.75 125.99372 363.75 130.84375 L 363.75 139.65625 C 363.75 144.50628 359.39485 148.46875 354.09375 148.46875 L 170.96875 148.46875 C 165.67043 148.46875 161.3125 144.50628 161.3125 139.65625 L 161.3125 130.84375 C 161.3125 125.99372 165.67043 122 170.96875 122 z M 102.875 201.6875 L 122.4375 201.6875 C 127.7386 201.6875 132.09375 205.68122 132.09375 210.53125 L 132.09375 219.3125 C 132.09375 224.16254 127.7386 228.15625 122.4375 228.15625 L 102.875 228.15625 C 97.576669 228.15625 93.21875 224.16254 93.21875 219.3125 L 93.21875 210.53125 C 93.21875 205.68122 97.576669 201.6875 102.875 201.6875 z M 170.96875 201.6875 L 354.09375 201.6875 C 359.39485 201.6875 363.75 205.68122 363.75 210.53125 L 363.75 219.3125 C 363.75 224.16254 359.39485 228.15625 354.09375 228.15625 L 170.96875 228.15625 C 165.67043 228.15625 161.3125 224.16254 161.3125 219.3125 L 161.3125 210.53125 C 161.3125 205.68122 165.67043 201.6875 170.96875 201.6875 z M 175.03125 278.96875 L 358.15625 278.96875 C 363.45735 278.96875 367.8125 282.96247 367.8125 287.8125 L 367.8125 296.59375 C 367.8125 301.44379 363.45735 305.4375 358.15625 305.4375 L 175.03125 305.4375 C 169.73293 305.4375 165.375 301.44379 165.375 296.59375 L 165.375 287.8125 C 165.375 282.96247 169.73293 278.96875 175.03125 278.96875 z M 102.875 281 L 122.4375 281 C 127.7386 281 132.09375 284.99372 132.09375 289.84375 L 132.09375 298.625 C 132.09375 303.47504 127.7386 307.46875 122.4375 307.46875 L 102.875 307.46875 C 97.576665 307.46875 93.21875 303.47504 93.21875 298.625 L 93.21875 289.84375 C 93.21875 284.99372 97.576665 281 102.875 281 z "
   id="path7" />
<path
   d="m 809.33455,-62.988314 c -15.22256,0.71198 -27.43677,12.36112 -27.43677,26.45531 l 0,361.701104 c 0,14.55517 13.04674,26.4553 28.95142,26.4553 l 182.75318,0 -0.69241,-0.67326 183.53213,0 0,-196.87027 c 0.238,-0.17837 0.4653,-0.31778 0.6924,-0.51485 l 0,-190.098024 c 0,-14.54884 -13.0035,-26.45531 -28.9082,-26.45531 l -337.3771,0 c -0.49697,0 -1.0236,-0.023 -1.51465,0 z"
   id="path3803"
   inkscape:connector-curvature="0" /><path
   d="m 708.98224,-280.70718 19.56061,0 c 5.3011,0 9.65047,3.9816 9.65047,8.83163 l 0,8.83165 c 0,4.85003 -4.34937,8.79203 -9.65047,8.79203 l -19.56061,0 c -5.29833,0 -9.65048,-3.942 -9.65048,-8.79203 l 0,-8.83165 c 0,-4.85003 4.35215,-8.83163 9.65048,-8.83163 z"
   id="path3801"
   inkscape:connector-curvature="0" /><path
   d="m 777.05487,-280.70718 183.14267,0 c 5.3011,0 9.6505,3.9816 9.6505,8.83163 l 0,8.83165 c 0,4.85003 -4.3494,8.79203 -9.6505,8.79203 l -183.14267,0 c -5.29832,0 -9.65047,-3.942 -9.65047,-8.79203 l 0,-8.83165 c 0,-4.85003 4.35215,-8.83163 9.65047,-8.83163 z"
   id="path3799"
   inkscape:connector-curvature="0" /></svg>