<?xml version="1.0" encoding="UTF-8" standalone="no"?>
<!-- Created with Inkscape (http://www.inkscape.org/) -->

<svg
   xmlns:dc="http://purl.org/dc/elements/1.1/"
   xmlns:cc="http://creativecommons.org/ns#"
   xmlns:rdf="http://www.w3.org/1999/02/22-rdf-syntax-ns#"
   xmlns:svg="http://www.w3.org/2000/svg"
   xmlns="http://www.w3.org/2000/svg"
   xmlns:sodipodi="http://sodipodi.sourceforge.net/DTD/sodipodi-0.dtd"
   xmlns:inkscape="http://www.inkscape.org/namespaces/inkscape"
   width="48"
   height="48"
   id="svg8773"
   version="1.1"
   inkscape:version="0.48.2 r9819"
   sodipodi:docname="listSetTabIcon.svg"
   inkscape:export-filename="/Deepak/projects/android/ShoppingListTest/ico/listSetTabIcon.png"
   inkscape:export-xdpi="89.875183"
   inkscape:export-ydpi="89.875183">
  <defs
     id="defs8775">
    <inkscape:perspective
       sodipodi:type="inkscape:persp3d"
       inkscape:vp_x="26.137697 : 47.486047 : 1"
       inkscape:vp_y="0 : 1000 : 0"
       inkscape:vp_z="52.419417 : 19.580582 : 1"
       inkscape:persp3d-origin="24 : 16 : 1"
       id="perspective3805" />
  </defs>
  <sodipodi:namedview
     id="base"
     pagecolor="#ffffff"
     bordercolor="#666666"
     borderopacity="1.0"
     inkscape:pageopacity="0.0"
     inkscape:pageshadow="2"
     inkscape:zoom="7.9195959"
     inkscape:cx="42.721208"
     inkscape:cy="30.233194"
     inkscape:document-units="px"
     inkscape:current-layer="layer1"
     showgrid="false"
     inkscape:window-width="1440"
     inkscape:window-height="878"
     inkscape:window-x="2"
     inkscape:window-y="3"
     inkscape:window-maximized="0"
     inkscape:showpageshadow="false" />
  <metadata
     id="metadata8778">
    <rdf:RDF>
      <cc:Work
         rdf:about="">
        <dc:format>image/svg+xml</dc:format>
        <dc:type
           rdf:resource="http://purl.org/dc/dcmitype/StillImage" />
        <dc:title></dc:title>
      </cc:Work>
    </rdf:RDF>
  </metadata>
  <g
     inkscape:label="Layer 1"
     inkscape:groupmode="layer"
     id="layer1"
     transform="translate(0,-1004.3622)">
    <path
       style="fill:#808080;fill-opacity:1;stroke:#000000;stroke-width:0.113563;stroke-opacity:1"
       d="m 7.0375953,1004.5185 -0.5625,0.2812 c -0.499962,0.235 -1.0311112,0.7442 -1.375,1.2188 0.043326,-0.024 0.082282,-0.074 0.125,-0.094 l 0.5625,-0.2812 19.2812497,0 19.28125,0 0.5625,0.2812 c 0.637878,0.2979 1.284713,0.9017 1.59375,1.4688 0.19,0.3486 0.22531,1.4278 0.1875,20.9375 -0.02074,10.7025 -0.0516,18.5238 -0.0625,19.4687 0.189101,-0 1.24612,0 1.25,0 0.0092,-0.01 0.04056,-9.2727 0.0625,-20.5937 0.03781,-19.5097 0.0025,-20.5889 -0.1875,-20.9375 -0.309037,-0.5671 -0.955872,-1.1709 -1.59375,-1.4688 l -0.5625,-0.2812 -19.28125,0 -19.2812497,0 z m -2.34375,6.7812 c -0.024117,3.6266 -0.03125,8.6301 -0.03125,15.1563 l 0,17.0625 39.7812497,0 0,-1.125 -38.5312497,0 0,-31.0938 -1.21875,0 z"
       id="path3772"
       inkscape:connector-curvature="0" />
    <path
       style="fill:#808080;fill-opacity:1;stroke:#000000;stroke-width:0.113563;stroke-opacity:1"
       d="m 4.645936,1006.6518 -0.5625,0.2813 c -0.680318,0.3197 -1.439711,1.1106 -1.65625,1.6875 0.09217,-0.058 0.190982,-0.1139 0.28125,-0.1563 l 0.5625,-0.2812 19.28125,0 19.28125,0 0.5625,0.2812 c 0.637878,0.2979 1.284718,0.9017 1.593748,1.4688 0.19,0.3486 0.22531,1.4277 0.1875,20.9374 -0.0203,10.4792 -0.0511,17.8164 -0.0625,19.0625 0.22511,0 1.37076,0 1.375,0 0.009,-0.01 0.0406,-9.2727 0.0625,-20.5937 0.0378,-19.5097 0.002,-20.5889 -0.1875,-20.9375 -0.30903,-0.5671 -0.95587,-1.1708 -1.59375,-1.4687 l -0.5625,-0.2813 -19.281248,0 -19.28125,0 z m -2.34375,7.1875 c -0.02191,3.6557 -0.03125,8.5848 -0.03125,14.75 l 0,17.4687 39.65625,0 0,-1.5312 -38.40625,0 0,-30.6875 -1.21875,0 z"
       id="path3765"
       inkscape:connector-curvature="0" />
    <path
       inkscape:connector-curvature="0"
       id="path3759"
       d="m 2.2780867,1052.1538 c -1.1417608,-0.3983 -1.50670574,-0.675 -2.02066288,-1.5323 l -0.27030979,-0.451 0,-19.2209 c 0,-10.5715 0.0410737,-19.4168 0.0912727,-19.6564 0.12026175,-0.574 0.96712957,-1.4896 1.69680347,-1.8345 l 0.5587736,-0.2641 18.9983122,0 18.998314,0 0.570191,0.2677 c 0.628599,0.2953 1.274593,0.8888 1.579135,1.451 0.187219,0.3456 0.195473,1.4291 0.158209,20.7691 -0.02162,11.2225 -0.04677,20.4117 -0.05589,20.4205 -0.07801,0.075 -40.0909328,0.1253 -40.3041612,0.05 z m 7.6342942,-14.8691 c 0.2694011,-0.2837 0.3002951,-0.4003 0.3002951,-1.1327 0,-0.7382 -0.02837,-0.8431 -0.2957051,-1.093 -0.2816232,-0.2633 -0.3633163,-0.2764 -1.7155226,-0.2764 -0.7808996,0 -1.5712587,0.053 -1.7563544,0.1183 -0.4329647,0.1523 -0.590854,0.516 -0.590854,1.3611 0,0.601 0.037841,0.718 0.3266688,1.0094 l 0.3266669,0.3295 1.5522552,0 1.5522552,0 0.3002949,-0.3162 0,0 z m 25.4364681,-0.074 c 0.368071,-0.1919 0.45206,-0.4395 0.454148,-1.3378 0.0013,-0.5767 -0.03831,-0.6971 -0.325143,-0.9864 l -0.326667,-0.3295 -10.295588,0 c -11.235597,0 -10.824218,-0.023 -11.071571,0.6328 -0.262393,0.6962 -0.0534,1.8424 0.373901,2.0505 0.167398,0.081 3.52855,0.1222 10.56048,0.1274 8.834923,0.01 10.360198,-0.016 10.63044,-0.157 l 0,0 z m -25.4800111,-8.1312 c 0.3273391,-0.2778 0.3438381,-0.3322 0.3438381,-1.1325 0,-0.7486 -0.03087,-0.8718 -0.2823131,-1.1253 -0.2803911,-0.2829 -0.293677,-0.2846 -1.952031,-0.2485 -2.005812,0.044 -2.0341734,0.058 -2.1044105,1.172 -0.087883,1.3922 0.2193224,1.6152 2.234779,1.6216 1.3637637,0 1.4290529,-0.01 1.7601375,-0.2873 l 0,0 z m 24.9114541,0.1323 c 0.469587,-0.2449 0.611142,-0.6173 0.55753,-1.4666 -0.0795,-1.2595 1.122669,-1.1358 -11.044043,-1.1358 -12.11391,0 -10.957271,-0.1119 -11.04186,1.0678 -0.05767,0.8043 0.11253,1.2993 0.524399,1.5251 0.436003,0.239 20.54652,0.2482 21.003974,0.01 l 0,0 z m -24.8569371,-8.5294 c 0.2490791,-0.2987 0.2893211,-0.4535 0.2893211,-1.1122 0,-0.6036 -0.04896,-0.8281 -0.2316201,-1.0624 -0.230994,-0.2962 -0.2359672,-0.2969 -1.8348136,-0.2969 -0.8817559,0 -1.6846006,0.032 -1.7840989,0.069 -0.3066602,0.1187 -0.5079035,0.6728 -0.5079035,1.3986 0,0.613 0.036708,0.7277 0.3266688,1.0202 l 0.3266669,0.3295 1.5632292,0 1.5632302,0 0.2893199,-0.3468 0,0 z m 25.1074801,0.017 c 0.289961,-0.2926 0.326668,-0.4072 0.326668,-1.0202 0,-0.7258 -0.201243,-1.2799 -0.507902,-1.3986 -0.236426,-0.091 -20.875217,-0.091 -21.111642,0 -0.306661,0.1187 -0.507903,0.6728 -0.507903,1.3986 0,0.613 0.03671,0.7276 0.326667,1.0202 l 0.326668,0.3294 10.410388,0 10.410388,0 0.326668,-0.3294 z"
       style="fill:#808080;fill-opacity:1;stroke:#000000;stroke-width:0.11224247;stroke-opacity:1" />
  </g>
</svg>
